<mxfile host="app.diagrams.net" modified="2021-02-16T21:50:34.336Z" agent="5.0 (X11; Linux x86_64) AppleWebKit/537.36 (KHTML, like Gecko) Chrome/88.0.4324.152 Safari/537.36" etag="nw2HBJlI6Htd5p0_uRWb" version="14.3.2" type="github">
  <diagram id="C5RBs43oDa-KdzZeNtuy" name="Page-1">
    <mxGraphModel dx="2249" dy="682" grid="1" gridSize="10" guides="1" tooltips="1" connect="1" arrows="1" fold="1" page="1" pageScale="1" pageWidth="827" pageHeight="1169" math="0" shadow="0">
      <root>
        <mxCell id="WIyWlLk6GJQsqaUBKTNV-0" />
        <mxCell id="WIyWlLk6GJQsqaUBKTNV-1" parent="WIyWlLk6GJQsqaUBKTNV-0" />
        <mxCell id="NZekOB0SaVrYHux2-7-G-26" style="edgeStyle=orthogonalEdgeStyle;rounded=0;orthogonalLoop=1;jettySize=auto;html=1;entryX=0;entryY=1;entryDx=0;entryDy=0;" edge="1" parent="WIyWlLk6GJQsqaUBKTNV-1" source="NZekOB0SaVrYHux2-7-G-21" target="NZekOB0SaVrYHux2-7-G-7">
          <mxGeometry relative="1" as="geometry">
            <Array as="points">
              <mxPoint x="765" y="370" />
              <mxPoint x="540" y="370" />
              <mxPoint x="540" y="233" />
            </Array>
          </mxGeometry>
        </mxCell>
        <mxCell id="WIyWlLk6GJQsqaUBKTNV-2" value="" style="rounded=0;html=1;jettySize=auto;orthogonalLoop=1;fontSize=11;endArrow=block;endFill=0;endSize=8;strokeWidth=1;shadow=0;labelBackgroundColor=none;edgeStyle=orthogonalEdgeStyle;entryX=0.5;entryY=0;entryDx=0;entryDy=0;" parent="WIyWlLk6GJQsqaUBKTNV-1" source="WIyWlLk6GJQsqaUBKTNV-3" target="NZekOB0SaVrYHux2-7-G-28" edge="1">
          <mxGeometry relative="1" as="geometry" />
        </mxCell>
        <mxCell id="WIyWlLk6GJQsqaUBKTNV-3" value="Open application" style="rounded=1;whiteSpace=wrap;html=1;fontSize=12;glass=0;strokeWidth=1;shadow=0;" parent="WIyWlLk6GJQsqaUBKTNV-1" vertex="1">
          <mxGeometry x="160" y="20" width="120" height="40" as="geometry" />
        </mxCell>
        <mxCell id="WIyWlLk6GJQsqaUBKTNV-5" value="Scan barcode" style="edgeStyle=orthogonalEdgeStyle;rounded=0;html=1;jettySize=auto;orthogonalLoop=1;fontSize=11;endArrow=block;endFill=0;endSize=8;strokeWidth=1;shadow=0;labelBackgroundColor=none;" parent="WIyWlLk6GJQsqaUBKTNV-1" source="WIyWlLk6GJQsqaUBKTNV-6" edge="1">
          <mxGeometry y="10" relative="1" as="geometry">
            <mxPoint as="offset" />
            <mxPoint x="360" y="210" as="targetPoint" />
          </mxGeometry>
        </mxCell>
        <mxCell id="NZekOB0SaVrYHux2-7-G-14" style="edgeStyle=orthogonalEdgeStyle;rounded=0;orthogonalLoop=1;jettySize=auto;html=1;entryX=0.5;entryY=0;entryDx=0;entryDy=0;" edge="1" parent="WIyWlLk6GJQsqaUBKTNV-1" source="WIyWlLk6GJQsqaUBKTNV-6" target="NZekOB0SaVrYHux2-7-G-11">
          <mxGeometry relative="1" as="geometry" />
        </mxCell>
        <mxCell id="NZekOB0SaVrYHux2-7-G-15" value="Press F1" style="edgeLabel;html=1;align=center;verticalAlign=middle;resizable=0;points=[];" vertex="1" connectable="0" parent="NZekOB0SaVrYHux2-7-G-14">
          <mxGeometry x="0.3139" y="1" relative="1" as="geometry">
            <mxPoint x="-1" y="-6.39" as="offset" />
          </mxGeometry>
        </mxCell>
        <mxCell id="WIyWlLk6GJQsqaUBKTNV-6" value="Do either" style="rhombus;whiteSpace=wrap;html=1;shadow=0;fontFamily=Helvetica;fontSize=12;align=center;strokeWidth=1;spacing=6;spacingTop=-4;" parent="WIyWlLk6GJQsqaUBKTNV-1" vertex="1">
          <mxGeometry x="170" y="170" width="100" height="80" as="geometry" />
        </mxCell>
        <mxCell id="NZekOB0SaVrYHux2-7-G-1" style="edgeStyle=orthogonalEdgeStyle;rounded=0;orthogonalLoop=1;jettySize=auto;html=1;entryX=1;entryY=0.5;entryDx=0;entryDy=0;" edge="1" parent="WIyWlLk6GJQsqaUBKTNV-1" source="NZekOB0SaVrYHux2-7-G-0" target="NZekOB0SaVrYHux2-7-G-28">
          <mxGeometry relative="1" as="geometry">
            <Array as="points">
              <mxPoint x="400" y="130" />
            </Array>
          </mxGeometry>
        </mxCell>
        <mxCell id="NZekOB0SaVrYHux2-7-G-3" value="No, return to main screen" style="edgeLabel;html=1;align=center;verticalAlign=middle;resizable=0;points=[];" vertex="1" connectable="0" parent="NZekOB0SaVrYHux2-7-G-1">
          <mxGeometry x="-0.2481" y="-1" relative="1" as="geometry">
            <mxPoint x="-7.490000000000002" y="1" as="offset" />
          </mxGeometry>
        </mxCell>
        <mxCell id="NZekOB0SaVrYHux2-7-G-4" style="edgeStyle=orthogonalEdgeStyle;rounded=0;orthogonalLoop=1;jettySize=auto;html=1;entryX=0;entryY=0.5;entryDx=0;entryDy=0;" edge="1" parent="WIyWlLk6GJQsqaUBKTNV-1" source="NZekOB0SaVrYHux2-7-G-0" target="NZekOB0SaVrYHux2-7-G-7">
          <mxGeometry relative="1" as="geometry">
            <mxPoint x="580" y="210" as="targetPoint" />
          </mxGeometry>
        </mxCell>
        <mxCell id="NZekOB0SaVrYHux2-7-G-5" value="Yes, show account page" style="edgeLabel;html=1;align=center;verticalAlign=middle;resizable=0;points=[];" vertex="1" connectable="0" parent="NZekOB0SaVrYHux2-7-G-4">
          <mxGeometry x="-0.2833" relative="1" as="geometry">
            <mxPoint x="13.33" as="offset" />
          </mxGeometry>
        </mxCell>
        <mxCell id="NZekOB0SaVrYHux2-7-G-0" value="Is user?" style="rhombus;whiteSpace=wrap;html=1;" vertex="1" parent="WIyWlLk6GJQsqaUBKTNV-1">
          <mxGeometry x="360" y="170" width="80" height="80" as="geometry" />
        </mxCell>
        <mxCell id="NZekOB0SaVrYHux2-7-G-8" style="edgeStyle=orthogonalEdgeStyle;rounded=0;orthogonalLoop=1;jettySize=auto;html=1;entryX=1;entryY=0.5;entryDx=0;entryDy=0;" edge="1" parent="WIyWlLk6GJQsqaUBKTNV-1" source="NZekOB0SaVrYHux2-7-G-7" target="NZekOB0SaVrYHux2-7-G-9">
          <mxGeometry relative="1" as="geometry">
            <mxPoint x="630" y="90" as="targetPoint" />
            <Array as="points">
              <mxPoint x="630" y="80" />
            </Array>
          </mxGeometry>
        </mxCell>
        <mxCell id="NZekOB0SaVrYHux2-7-G-13" value="User" style="edgeLabel;html=1;align=center;verticalAlign=middle;resizable=0;points=[];" vertex="1" connectable="0" parent="NZekOB0SaVrYHux2-7-G-8">
          <mxGeometry x="-0.1708" y="1" relative="1" as="geometry">
            <mxPoint as="offset" />
          </mxGeometry>
        </mxCell>
        <mxCell id="NZekOB0SaVrYHux2-7-G-17" style="edgeStyle=orthogonalEdgeStyle;rounded=0;orthogonalLoop=1;jettySize=auto;html=1;entryX=0.5;entryY=0;entryDx=0;entryDy=0;" edge="1" parent="WIyWlLk6GJQsqaUBKTNV-1" source="NZekOB0SaVrYHux2-7-G-7" target="NZekOB0SaVrYHux2-7-G-12">
          <mxGeometry relative="1" as="geometry" />
        </mxCell>
        <mxCell id="NZekOB0SaVrYHux2-7-G-18" value="Item" style="edgeLabel;html=1;align=center;verticalAlign=middle;resizable=0;points=[];" vertex="1" connectable="0" parent="NZekOB0SaVrYHux2-7-G-17">
          <mxGeometry x="-0.2933" relative="1" as="geometry">
            <mxPoint as="offset" />
          </mxGeometry>
        </mxCell>
        <mxCell id="NZekOB0SaVrYHux2-7-G-22" style="edgeStyle=orthogonalEdgeStyle;rounded=0;orthogonalLoop=1;jettySize=auto;html=1;entryX=0;entryY=0.5;entryDx=0;entryDy=0;" edge="1" parent="WIyWlLk6GJQsqaUBKTNV-1" source="NZekOB0SaVrYHux2-7-G-7" target="NZekOB0SaVrYHux2-7-G-21">
          <mxGeometry relative="1" as="geometry" />
        </mxCell>
        <mxCell id="NZekOB0SaVrYHux2-7-G-23" value="Multiplier" style="edgeLabel;html=1;align=center;verticalAlign=middle;resizable=0;points=[];rotation=-90;" vertex="1" connectable="0" parent="NZekOB0SaVrYHux2-7-G-22">
          <mxGeometry x="0.2928" relative="1" as="geometry">
            <mxPoint x="-5.71" as="offset" />
          </mxGeometry>
        </mxCell>
        <mxCell id="NZekOB0SaVrYHux2-7-G-7" value="Scan barcode of&amp;nbsp;" style="rhombus;whiteSpace=wrap;html=1;" vertex="1" parent="WIyWlLk6GJQsqaUBKTNV-1">
          <mxGeometry x="580" y="165" width="100" height="90" as="geometry" />
        </mxCell>
        <mxCell id="NZekOB0SaVrYHux2-7-G-10" style="edgeStyle=orthogonalEdgeStyle;rounded=0;orthogonalLoop=1;jettySize=auto;html=1;entryX=0.5;entryY=0;entryDx=0;entryDy=0;" edge="1" parent="WIyWlLk6GJQsqaUBKTNV-1" source="NZekOB0SaVrYHux2-7-G-9" target="NZekOB0SaVrYHux2-7-G-28">
          <mxGeometry relative="1" as="geometry" />
        </mxCell>
        <mxCell id="NZekOB0SaVrYHux2-7-G-27" value="Return to main screen" style="edgeLabel;html=1;align=center;verticalAlign=middle;resizable=0;points=[];" vertex="1" connectable="0" parent="NZekOB0SaVrYHux2-7-G-10">
          <mxGeometry x="0.0857" y="-2" relative="1" as="geometry">
            <mxPoint x="50" y="2" as="offset" />
          </mxGeometry>
        </mxCell>
        <mxCell id="NZekOB0SaVrYHux2-7-G-9" value="Save account and return to main screen" style="rounded=1;whiteSpace=wrap;html=1;" vertex="1" parent="WIyWlLk6GJQsqaUBKTNV-1">
          <mxGeometry x="430" y="50" width="120" height="60" as="geometry" />
        </mxCell>
        <mxCell id="NZekOB0SaVrYHux2-7-G-37" style="edgeStyle=orthogonalEdgeStyle;rounded=0;orthogonalLoop=1;jettySize=auto;html=1;exitX=0.5;exitY=1;exitDx=0;exitDy=0;entryX=0.5;entryY=0;entryDx=0;entryDy=0;" edge="1" parent="WIyWlLk6GJQsqaUBKTNV-1" source="NZekOB0SaVrYHux2-7-G-11" target="NZekOB0SaVrYHux2-7-G-36">
          <mxGeometry relative="1" as="geometry">
            <Array as="points">
              <mxPoint x="220" y="380" />
              <mxPoint x="720" y="380" />
            </Array>
          </mxGeometry>
        </mxCell>
        <mxCell id="NZekOB0SaVrYHux2-7-G-38" style="edgeStyle=orthogonalEdgeStyle;rounded=0;orthogonalLoop=1;jettySize=auto;html=1;entryX=0.5;entryY=0;entryDx=0;entryDy=0;" edge="1" parent="WIyWlLk6GJQsqaUBKTNV-1" source="NZekOB0SaVrYHux2-7-G-11" target="NZekOB0SaVrYHux2-7-G-35">
          <mxGeometry relative="1" as="geometry">
            <Array as="points">
              <mxPoint x="220" y="380" />
              <mxPoint x="560" y="380" />
            </Array>
          </mxGeometry>
        </mxCell>
        <mxCell id="NZekOB0SaVrYHux2-7-G-39" style="edgeStyle=orthogonalEdgeStyle;rounded=0;orthogonalLoop=1;jettySize=auto;html=1;entryX=0.5;entryY=0;entryDx=0;entryDy=0;" edge="1" parent="WIyWlLk6GJQsqaUBKTNV-1" source="NZekOB0SaVrYHux2-7-G-11" target="NZekOB0SaVrYHux2-7-G-34">
          <mxGeometry relative="1" as="geometry">
            <Array as="points">
              <mxPoint x="220" y="380" />
              <mxPoint x="400" y="380" />
            </Array>
          </mxGeometry>
        </mxCell>
        <mxCell id="NZekOB0SaVrYHux2-7-G-42" value="Enter any of the following tabs" style="edgeLabel;html=1;align=center;verticalAlign=middle;resizable=0;points=[];" vertex="1" connectable="0" parent="NZekOB0SaVrYHux2-7-G-39">
          <mxGeometry x="0.3048" y="-3" relative="1" as="geometry">
            <mxPoint x="3" y="-3" as="offset" />
          </mxGeometry>
        </mxCell>
        <mxCell id="NZekOB0SaVrYHux2-7-G-40" style="edgeStyle=orthogonalEdgeStyle;rounded=0;orthogonalLoop=1;jettySize=auto;html=1;entryX=0.5;entryY=0;entryDx=0;entryDy=0;" edge="1" parent="WIyWlLk6GJQsqaUBKTNV-1" source="NZekOB0SaVrYHux2-7-G-11" target="NZekOB0SaVrYHux2-7-G-33">
          <mxGeometry relative="1" as="geometry">
            <Array as="points">
              <mxPoint x="220" y="380" />
              <mxPoint x="240" y="380" />
            </Array>
          </mxGeometry>
        </mxCell>
        <mxCell id="NZekOB0SaVrYHux2-7-G-41" style="edgeStyle=orthogonalEdgeStyle;rounded=0;orthogonalLoop=1;jettySize=auto;html=1;" edge="1" parent="WIyWlLk6GJQsqaUBKTNV-1" source="NZekOB0SaVrYHux2-7-G-11" target="NZekOB0SaVrYHux2-7-G-32">
          <mxGeometry relative="1" as="geometry">
            <Array as="points">
              <mxPoint x="220" y="380" />
              <mxPoint x="80" y="380" />
            </Array>
          </mxGeometry>
        </mxCell>
        <mxCell id="NZekOB0SaVrYHux2-7-G-11" value="Enter settings screen" style="rounded=1;whiteSpace=wrap;html=1;" vertex="1" parent="WIyWlLk6GJQsqaUBKTNV-1">
          <mxGeometry x="160" y="310" width="120" height="60" as="geometry" />
        </mxCell>
        <mxCell id="NZekOB0SaVrYHux2-7-G-19" style="edgeStyle=orthogonalEdgeStyle;rounded=0;orthogonalLoop=1;jettySize=auto;html=1;entryX=0;entryY=1;entryDx=0;entryDy=0;" edge="1" parent="WIyWlLk6GJQsqaUBKTNV-1" source="NZekOB0SaVrYHux2-7-G-12" target="NZekOB0SaVrYHux2-7-G-7">
          <mxGeometry relative="1" as="geometry">
            <Array as="points">
              <mxPoint x="540" y="320" />
              <mxPoint x="540" y="233" />
            </Array>
          </mxGeometry>
        </mxCell>
        <mxCell id="NZekOB0SaVrYHux2-7-G-20" value="Return to account screen" style="edgeLabel;html=1;align=center;verticalAlign=middle;resizable=0;points=[];" vertex="1" connectable="0" parent="NZekOB0SaVrYHux2-7-G-19">
          <mxGeometry x="-0.0114" y="2" relative="1" as="geometry">
            <mxPoint x="11.97" y="14.89" as="offset" />
          </mxGeometry>
        </mxCell>
        <mxCell id="NZekOB0SaVrYHux2-7-G-12" value="Add item to list of transactions to perform" style="rounded=1;whiteSpace=wrap;html=1;" vertex="1" parent="WIyWlLk6GJQsqaUBKTNV-1">
          <mxGeometry x="570" y="290" width="120" height="60" as="geometry" />
        </mxCell>
        <mxCell id="NZekOB0SaVrYHux2-7-G-21" value="Add multiplier to transaction of most recent item scanned" style="rounded=1;whiteSpace=wrap;html=1;" vertex="1" parent="WIyWlLk6GJQsqaUBKTNV-1">
          <mxGeometry x="720" y="175.63" width="90" height="68.75" as="geometry" />
        </mxCell>
        <mxCell id="NZekOB0SaVrYHux2-7-G-31" style="edgeStyle=orthogonalEdgeStyle;rounded=0;orthogonalLoop=1;jettySize=auto;html=1;exitX=0.5;exitY=1;exitDx=0;exitDy=0;entryX=0.5;entryY=0;entryDx=0;entryDy=0;" edge="1" parent="WIyWlLk6GJQsqaUBKTNV-1" source="NZekOB0SaVrYHux2-7-G-28" target="WIyWlLk6GJQsqaUBKTNV-6">
          <mxGeometry relative="1" as="geometry" />
        </mxCell>
        <mxCell id="NZekOB0SaVrYHux2-7-G-28" value="Show main screen" style="rounded=1;whiteSpace=wrap;html=1;" vertex="1" parent="WIyWlLk6GJQsqaUBKTNV-1">
          <mxGeometry x="160" y="100" width="120" height="60" as="geometry" />
        </mxCell>
        <mxCell id="NZekOB0SaVrYHux2-7-G-44" style="edgeStyle=orthogonalEdgeStyle;rounded=0;orthogonalLoop=1;jettySize=auto;html=1;entryX=0.5;entryY=0;entryDx=0;entryDy=0;" edge="1" parent="WIyWlLk6GJQsqaUBKTNV-1" source="NZekOB0SaVrYHux2-7-G-32" target="NZekOB0SaVrYHux2-7-G-43">
          <mxGeometry relative="1" as="geometry" />
        </mxCell>
        <mxCell id="NZekOB0SaVrYHux2-7-G-87" style="edgeStyle=orthogonalEdgeStyle;rounded=0;orthogonalLoop=1;jettySize=auto;html=1;" edge="1" parent="WIyWlLk6GJQsqaUBKTNV-1" source="NZekOB0SaVrYHux2-7-G-32">
          <mxGeometry relative="1" as="geometry">
            <mxPoint x="160" y="130" as="targetPoint" />
            <Array as="points">
              <mxPoint x="130" y="460" />
              <mxPoint x="130" y="670" />
              <mxPoint x="-30" y="670" />
              <mxPoint x="-30" y="130" />
            </Array>
          </mxGeometry>
        </mxCell>
        <mxCell id="NZekOB0SaVrYHux2-7-G-32" value="Users" style="rounded=1;whiteSpace=wrap;html=1;" vertex="1" parent="WIyWlLk6GJQsqaUBKTNV-1">
          <mxGeometry x="20" y="400" width="120" height="60" as="geometry" />
        </mxCell>
        <mxCell id="NZekOB0SaVrYHux2-7-G-86" style="edgeStyle=orthogonalEdgeStyle;rounded=0;orthogonalLoop=1;jettySize=auto;html=1;entryX=0;entryY=0.5;entryDx=0;entryDy=0;exitX=0.884;exitY=1.017;exitDx=0;exitDy=0;exitPerimeter=0;" edge="1" parent="WIyWlLk6GJQsqaUBKTNV-1" source="NZekOB0SaVrYHux2-7-G-33" target="NZekOB0SaVrYHux2-7-G-28">
          <mxGeometry relative="1" as="geometry">
            <Array as="points">
              <mxPoint x="286" y="670" />
              <mxPoint x="-30" y="670" />
              <mxPoint x="-30" y="130" />
            </Array>
          </mxGeometry>
        </mxCell>
        <mxCell id="NZekOB0SaVrYHux2-7-G-33" value="Items" style="rounded=1;whiteSpace=wrap;html=1;" vertex="1" parent="WIyWlLk6GJQsqaUBKTNV-1">
          <mxGeometry x="180" y="400" width="120" height="60" as="geometry" />
        </mxCell>
        <mxCell id="NZekOB0SaVrYHux2-7-G-85" style="edgeStyle=orthogonalEdgeStyle;rounded=0;orthogonalLoop=1;jettySize=auto;html=1;entryX=0;entryY=0.5;entryDx=0;entryDy=0;" edge="1" parent="WIyWlLk6GJQsqaUBKTNV-1" source="NZekOB0SaVrYHux2-7-G-34" target="NZekOB0SaVrYHux2-7-G-28">
          <mxGeometry relative="1" as="geometry">
            <Array as="points">
              <mxPoint x="470" y="430" />
              <mxPoint x="470" y="670" />
              <mxPoint x="-30" y="670" />
              <mxPoint x="-30" y="130" />
            </Array>
          </mxGeometry>
        </mxCell>
        <mxCell id="NZekOB0SaVrYHux2-7-G-34" value="Printing" style="rounded=1;whiteSpace=wrap;html=1;" vertex="1" parent="WIyWlLk6GJQsqaUBKTNV-1">
          <mxGeometry x="340" y="400" width="120" height="60" as="geometry" />
        </mxCell>
        <mxCell id="NZekOB0SaVrYHux2-7-G-69" style="edgeStyle=orthogonalEdgeStyle;rounded=0;orthogonalLoop=1;jettySize=auto;html=1;entryX=0.5;entryY=0;entryDx=0;entryDy=0;" edge="1" parent="WIyWlLk6GJQsqaUBKTNV-1" source="NZekOB0SaVrYHux2-7-G-35">
          <mxGeometry relative="1" as="geometry">
            <mxPoint x="560" y="490" as="targetPoint" />
          </mxGeometry>
        </mxCell>
        <mxCell id="NZekOB0SaVrYHux2-7-G-84" style="edgeStyle=orthogonalEdgeStyle;rounded=0;orthogonalLoop=1;jettySize=auto;html=1;" edge="1" parent="WIyWlLk6GJQsqaUBKTNV-1" source="NZekOB0SaVrYHux2-7-G-35">
          <mxGeometry relative="1" as="geometry">
            <mxPoint x="160" y="130" as="targetPoint" />
            <Array as="points">
              <mxPoint x="630" y="430" />
              <mxPoint x="630" y="670" />
              <mxPoint x="-30" y="670" />
              <mxPoint x="-30" y="130" />
            </Array>
          </mxGeometry>
        </mxCell>
        <mxCell id="NZekOB0SaVrYHux2-7-G-35" value="Payment" style="rounded=1;whiteSpace=wrap;html=1;" vertex="1" parent="WIyWlLk6GJQsqaUBKTNV-1">
          <mxGeometry x="500" y="400" width="120" height="60" as="geometry" />
        </mxCell>
        <mxCell id="NZekOB0SaVrYHux2-7-G-76" style="edgeStyle=orthogonalEdgeStyle;rounded=0;orthogonalLoop=1;jettySize=auto;html=1;entryX=0.5;entryY=0;entryDx=0;entryDy=0;" edge="1" parent="WIyWlLk6GJQsqaUBKTNV-1" source="NZekOB0SaVrYHux2-7-G-36" target="NZekOB0SaVrYHux2-7-G-75">
          <mxGeometry relative="1" as="geometry" />
        </mxCell>
        <mxCell id="NZekOB0SaVrYHux2-7-G-83" style="edgeStyle=orthogonalEdgeStyle;rounded=0;orthogonalLoop=1;jettySize=auto;html=1;entryX=0;entryY=0.5;entryDx=0;entryDy=0;" edge="1" parent="WIyWlLk6GJQsqaUBKTNV-1" source="NZekOB0SaVrYHux2-7-G-36" target="NZekOB0SaVrYHux2-7-G-28">
          <mxGeometry relative="1" as="geometry">
            <Array as="points">
              <mxPoint x="800" y="430" />
              <mxPoint x="800" y="670" />
              <mxPoint x="-30" y="670" />
              <mxPoint x="-30" y="130" />
            </Array>
          </mxGeometry>
        </mxCell>
        <mxCell id="NZekOB0SaVrYHux2-7-G-90" value="Press F1 or Return" style="edgeLabel;html=1;align=center;verticalAlign=middle;resizable=0;points=[];rotation=-90;" vertex="1" connectable="0" parent="NZekOB0SaVrYHux2-7-G-83">
          <mxGeometry x="0.5937" y="3" relative="1" as="geometry">
            <mxPoint y="-59.41" as="offset" />
          </mxGeometry>
        </mxCell>
        <mxCell id="NZekOB0SaVrYHux2-7-G-36" value="Settings" style="rounded=1;whiteSpace=wrap;html=1;" vertex="1" parent="WIyWlLk6GJQsqaUBKTNV-1">
          <mxGeometry x="660" y="400" width="120" height="60" as="geometry" />
        </mxCell>
        <mxCell id="NZekOB0SaVrYHux2-7-G-45" style="edgeStyle=orthogonalEdgeStyle;rounded=0;orthogonalLoop=1;jettySize=auto;html=1;exitX=0;exitY=0;exitDx=0;exitDy=0;entryX=0;entryY=1;entryDx=0;entryDy=0;" edge="1" parent="WIyWlLk6GJQsqaUBKTNV-1" source="NZekOB0SaVrYHux2-7-G-43" target="NZekOB0SaVrYHux2-7-G-32">
          <mxGeometry relative="1" as="geometry">
            <mxPoint x="20" y="400" as="targetPoint" />
            <Array as="points">
              <mxPoint x="12" y="565" />
              <mxPoint x="12" y="460" />
            </Array>
          </mxGeometry>
        </mxCell>
        <mxCell id="NZekOB0SaVrYHux2-7-G-46" value="Add user" style="edgeLabel;html=1;align=center;verticalAlign=middle;resizable=0;points=[];rotation=-90;" vertex="1" connectable="0" parent="NZekOB0SaVrYHux2-7-G-45">
          <mxGeometry x="-0.6513" relative="1" as="geometry">
            <mxPoint x="-18.94" y="-48" as="offset" />
          </mxGeometry>
        </mxCell>
        <mxCell id="NZekOB0SaVrYHux2-7-G-47" style="edgeStyle=orthogonalEdgeStyle;rounded=0;orthogonalLoop=1;jettySize=auto;html=1;entryX=0;entryY=0.75;entryDx=0;entryDy=0;" edge="1" parent="WIyWlLk6GJQsqaUBKTNV-1" source="NZekOB0SaVrYHux2-7-G-43" target="NZekOB0SaVrYHux2-7-G-32">
          <mxGeometry relative="1" as="geometry">
            <Array as="points">
              <mxPoint y="585" />
              <mxPoint y="445" />
            </Array>
          </mxGeometry>
        </mxCell>
        <mxCell id="NZekOB0SaVrYHux2-7-G-48" value="Delete user" style="edgeLabel;html=1;align=center;verticalAlign=middle;resizable=0;points=[];rotation=-90;" vertex="1" connectable="0" parent="NZekOB0SaVrYHux2-7-G-47">
          <mxGeometry x="-0.0095" y="1" relative="1" as="geometry">
            <mxPoint x="1" y="-5.95" as="offset" />
          </mxGeometry>
        </mxCell>
        <mxCell id="NZekOB0SaVrYHux2-7-G-49" style="edgeStyle=orthogonalEdgeStyle;rounded=0;orthogonalLoop=1;jettySize=auto;html=1;exitX=0;exitY=1;exitDx=0;exitDy=0;entryX=0;entryY=0.5;entryDx=0;entryDy=0;" edge="1" parent="WIyWlLk6GJQsqaUBKTNV-1" source="NZekOB0SaVrYHux2-7-G-43" target="NZekOB0SaVrYHux2-7-G-32">
          <mxGeometry relative="1" as="geometry">
            <Array as="points">
              <mxPoint x="-12" y="605" />
              <mxPoint x="-12" y="430" />
            </Array>
          </mxGeometry>
        </mxCell>
        <mxCell id="NZekOB0SaVrYHux2-7-G-50" value="Modify user" style="edgeLabel;html=1;align=center;verticalAlign=middle;resizable=0;points=[];rotation=-90;" vertex="1" connectable="0" parent="NZekOB0SaVrYHux2-7-G-49">
          <mxGeometry x="0.0771" y="1" relative="1" as="geometry">
            <mxPoint y="-6.9" as="offset" />
          </mxGeometry>
        </mxCell>
        <mxCell id="NZekOB0SaVrYHux2-7-G-43" value="Perform actions on users" style="rhombus;whiteSpace=wrap;html=1;" vertex="1" parent="WIyWlLk6GJQsqaUBKTNV-1">
          <mxGeometry x="40" y="545" width="80" height="80" as="geometry" />
        </mxCell>
        <mxCell id="NZekOB0SaVrYHux2-7-G-51" style="edgeStyle=orthogonalEdgeStyle;rounded=0;orthogonalLoop=1;jettySize=auto;html=1;entryX=0.5;entryY=0;entryDx=0;entryDy=0;" edge="1" parent="WIyWlLk6GJQsqaUBKTNV-1" target="NZekOB0SaVrYHux2-7-G-58">
          <mxGeometry relative="1" as="geometry">
            <mxPoint x="240" y="460" as="sourcePoint" />
          </mxGeometry>
        </mxCell>
        <mxCell id="NZekOB0SaVrYHux2-7-G-52" style="edgeStyle=orthogonalEdgeStyle;rounded=0;orthogonalLoop=1;jettySize=auto;html=1;exitX=0;exitY=0;exitDx=0;exitDy=0;entryX=0;entryY=1;entryDx=0;entryDy=0;" edge="1" parent="WIyWlLk6GJQsqaUBKTNV-1" source="NZekOB0SaVrYHux2-7-G-58">
          <mxGeometry relative="1" as="geometry">
            <mxPoint x="180.00000000000023" y="460" as="targetPoint" />
            <Array as="points">
              <mxPoint x="172" y="565" />
              <mxPoint x="172" y="460" />
            </Array>
          </mxGeometry>
        </mxCell>
        <mxCell id="NZekOB0SaVrYHux2-7-G-53" value="Add item" style="edgeLabel;html=1;align=center;verticalAlign=middle;resizable=0;points=[];rotation=-90;" vertex="1" connectable="0" parent="NZekOB0SaVrYHux2-7-G-52">
          <mxGeometry x="-0.6513" relative="1" as="geometry">
            <mxPoint x="-18.94" y="-48" as="offset" />
          </mxGeometry>
        </mxCell>
        <mxCell id="NZekOB0SaVrYHux2-7-G-54" style="edgeStyle=orthogonalEdgeStyle;rounded=0;orthogonalLoop=1;jettySize=auto;html=1;entryX=0;entryY=0.75;entryDx=0;entryDy=0;" edge="1" parent="WIyWlLk6GJQsqaUBKTNV-1" source="NZekOB0SaVrYHux2-7-G-58">
          <mxGeometry relative="1" as="geometry">
            <mxPoint x="180.00000000000023" y="445" as="targetPoint" />
            <Array as="points">
              <mxPoint x="160" y="585" />
              <mxPoint x="160" y="445" />
            </Array>
          </mxGeometry>
        </mxCell>
        <mxCell id="NZekOB0SaVrYHux2-7-G-55" value="Delete item" style="edgeLabel;html=1;align=center;verticalAlign=middle;resizable=0;points=[];rotation=-90;" vertex="1" connectable="0" parent="NZekOB0SaVrYHux2-7-G-54">
          <mxGeometry x="-0.0095" y="1" relative="1" as="geometry">
            <mxPoint x="1" y="-5.95" as="offset" />
          </mxGeometry>
        </mxCell>
        <mxCell id="NZekOB0SaVrYHux2-7-G-56" style="edgeStyle=orthogonalEdgeStyle;rounded=0;orthogonalLoop=1;jettySize=auto;html=1;exitX=0;exitY=1;exitDx=0;exitDy=0;entryX=0;entryY=0.5;entryDx=0;entryDy=0;" edge="1" parent="WIyWlLk6GJQsqaUBKTNV-1" source="NZekOB0SaVrYHux2-7-G-58">
          <mxGeometry relative="1" as="geometry">
            <mxPoint x="180.00000000000023" y="430" as="targetPoint" />
            <Array as="points">
              <mxPoint x="148" y="605" />
              <mxPoint x="148" y="430" />
            </Array>
          </mxGeometry>
        </mxCell>
        <mxCell id="NZekOB0SaVrYHux2-7-G-57" value="Modify item" style="edgeLabel;html=1;align=center;verticalAlign=middle;resizable=0;points=[];rotation=-90;" vertex="1" connectable="0" parent="NZekOB0SaVrYHux2-7-G-56">
          <mxGeometry x="0.0771" y="1" relative="1" as="geometry">
            <mxPoint y="-6.9" as="offset" />
          </mxGeometry>
        </mxCell>
        <mxCell id="NZekOB0SaVrYHux2-7-G-58" value="Perform actions on items" style="rhombus;whiteSpace=wrap;html=1;" vertex="1" parent="WIyWlLk6GJQsqaUBKTNV-1">
          <mxGeometry x="200" y="545" width="80" height="80" as="geometry" />
        </mxCell>
        <mxCell id="NZekOB0SaVrYHux2-7-G-59" style="edgeStyle=orthogonalEdgeStyle;rounded=0;orthogonalLoop=1;jettySize=auto;html=1;entryX=0.5;entryY=0;entryDx=0;entryDy=0;" edge="1" parent="WIyWlLk6GJQsqaUBKTNV-1" target="NZekOB0SaVrYHux2-7-G-66">
          <mxGeometry relative="1" as="geometry">
            <mxPoint x="400" y="460" as="sourcePoint" />
          </mxGeometry>
        </mxCell>
        <mxCell id="NZekOB0SaVrYHux2-7-G-60" style="edgeStyle=orthogonalEdgeStyle;rounded=0;orthogonalLoop=1;jettySize=auto;html=1;exitX=0;exitY=0;exitDx=0;exitDy=0;entryX=0;entryY=1;entryDx=0;entryDy=0;" edge="1" parent="WIyWlLk6GJQsqaUBKTNV-1" source="NZekOB0SaVrYHux2-7-G-66">
          <mxGeometry relative="1" as="geometry">
            <mxPoint x="340.0000000000002" y="460" as="targetPoint" />
            <Array as="points">
              <mxPoint x="332" y="565" />
              <mxPoint x="332" y="460" />
            </Array>
          </mxGeometry>
        </mxCell>
        <mxCell id="NZekOB0SaVrYHux2-7-G-61" value="Multipliers" style="edgeLabel;html=1;align=center;verticalAlign=middle;resizable=0;points=[];rotation=-90;" vertex="1" connectable="0" parent="NZekOB0SaVrYHux2-7-G-60">
          <mxGeometry x="-0.6513" relative="1" as="geometry">
            <mxPoint x="-18.94" y="-48" as="offset" />
          </mxGeometry>
        </mxCell>
        <mxCell id="NZekOB0SaVrYHux2-7-G-62" style="edgeStyle=orthogonalEdgeStyle;rounded=0;orthogonalLoop=1;jettySize=auto;html=1;entryX=0;entryY=0.75;entryDx=0;entryDy=0;" edge="1" parent="WIyWlLk6GJQsqaUBKTNV-1" source="NZekOB0SaVrYHux2-7-G-66">
          <mxGeometry relative="1" as="geometry">
            <mxPoint x="340.0000000000002" y="445" as="targetPoint" />
            <Array as="points">
              <mxPoint x="320" y="585" />
              <mxPoint x="320" y="445" />
            </Array>
          </mxGeometry>
        </mxCell>
        <mxCell id="NZekOB0SaVrYHux2-7-G-63" value="Items" style="edgeLabel;html=1;align=center;verticalAlign=middle;resizable=0;points=[];rotation=-90;" vertex="1" connectable="0" parent="NZekOB0SaVrYHux2-7-G-62">
          <mxGeometry x="-0.0095" y="1" relative="1" as="geometry">
            <mxPoint x="1" y="-5.95" as="offset" />
          </mxGeometry>
        </mxCell>
        <mxCell id="NZekOB0SaVrYHux2-7-G-64" style="edgeStyle=orthogonalEdgeStyle;rounded=0;orthogonalLoop=1;jettySize=auto;html=1;exitX=0;exitY=1;exitDx=0;exitDy=0;entryX=0;entryY=0.5;entryDx=0;entryDy=0;" edge="1" parent="WIyWlLk6GJQsqaUBKTNV-1" source="NZekOB0SaVrYHux2-7-G-66">
          <mxGeometry relative="1" as="geometry">
            <mxPoint x="340.0000000000002" y="430" as="targetPoint" />
            <Array as="points">
              <mxPoint x="308" y="605" />
              <mxPoint x="308" y="430" />
            </Array>
          </mxGeometry>
        </mxCell>
        <mxCell id="NZekOB0SaVrYHux2-7-G-65" value="Users" style="edgeLabel;html=1;align=center;verticalAlign=middle;resizable=0;points=[];rotation=-90;" vertex="1" connectable="0" parent="NZekOB0SaVrYHux2-7-G-64">
          <mxGeometry x="0.0771" y="1" relative="1" as="geometry">
            <mxPoint y="-13.17" as="offset" />
          </mxGeometry>
        </mxCell>
        <mxCell id="NZekOB0SaVrYHux2-7-G-66" value="&lt;br&gt;Print barcodes for any of the following" style="rhombus;whiteSpace=wrap;html=1;" vertex="1" parent="WIyWlLk6GJQsqaUBKTNV-1">
          <mxGeometry x="335" y="545" width="130" height="115" as="geometry" />
        </mxCell>
        <mxCell id="NZekOB0SaVrYHux2-7-G-70" style="edgeStyle=orthogonalEdgeStyle;rounded=0;orthogonalLoop=1;jettySize=auto;html=1;entryX=0;entryY=1;entryDx=0;entryDy=0;exitX=0;exitY=0;exitDx=0;exitDy=0;" edge="1" parent="WIyWlLk6GJQsqaUBKTNV-1" source="NZekOB0SaVrYHux2-7-G-71" target="NZekOB0SaVrYHux2-7-G-35">
          <mxGeometry relative="1" as="geometry">
            <mxPoint x="500" y="520" as="sourcePoint" />
            <Array as="points">
              <mxPoint x="490" y="510" />
              <mxPoint x="490" y="460" />
            </Array>
          </mxGeometry>
        </mxCell>
        <mxCell id="NZekOB0SaVrYHux2-7-G-72" value="Export payments to CSV" style="edgeLabel;html=1;align=center;verticalAlign=middle;resizable=0;points=[];rotation=-90;" vertex="1" connectable="0" parent="NZekOB0SaVrYHux2-7-G-70">
          <mxGeometry x="0.0086" y="-1" relative="1" as="geometry">
            <mxPoint x="19" y="15.17" as="offset" />
          </mxGeometry>
        </mxCell>
        <mxCell id="NZekOB0SaVrYHux2-7-G-73" style="edgeStyle=orthogonalEdgeStyle;rounded=0;orthogonalLoop=1;jettySize=auto;html=1;exitX=0.5;exitY=1;exitDx=0;exitDy=0;entryX=0;entryY=0.75;entryDx=0;entryDy=0;" edge="1" parent="WIyWlLk6GJQsqaUBKTNV-1" source="NZekOB0SaVrYHux2-7-G-71" target="NZekOB0SaVrYHux2-7-G-35">
          <mxGeometry relative="1" as="geometry" />
        </mxCell>
        <mxCell id="NZekOB0SaVrYHux2-7-G-74" value="Reset due payments" style="edgeLabel;html=1;align=center;verticalAlign=middle;resizable=0;points=[];rotation=-90;" vertex="1" connectable="0" parent="NZekOB0SaVrYHux2-7-G-73">
          <mxGeometry x="0.0672" relative="1" as="geometry">
            <mxPoint y="-38.62" as="offset" />
          </mxGeometry>
        </mxCell>
        <mxCell id="NZekOB0SaVrYHux2-7-G-71" value="Perform any actions" style="rhombus;whiteSpace=wrap;html=1;" vertex="1" parent="WIyWlLk6GJQsqaUBKTNV-1">
          <mxGeometry x="520" y="490" width="80" height="80" as="geometry" />
        </mxCell>
        <mxCell id="NZekOB0SaVrYHux2-7-G-77" style="edgeStyle=orthogonalEdgeStyle;rounded=0;orthogonalLoop=1;jettySize=auto;html=1;exitX=0;exitY=0;exitDx=0;exitDy=0;entryX=0;entryY=1;entryDx=0;entryDy=0;" edge="1" parent="WIyWlLk6GJQsqaUBKTNV-1" source="NZekOB0SaVrYHux2-7-G-75" target="NZekOB0SaVrYHux2-7-G-36">
          <mxGeometry relative="1" as="geometry">
            <Array as="points">
              <mxPoint x="660" y="520" />
            </Array>
          </mxGeometry>
        </mxCell>
        <mxCell id="NZekOB0SaVrYHux2-7-G-78" value="Language" style="edgeLabel;html=1;align=center;verticalAlign=middle;resizable=0;points=[];rotation=-90;" vertex="1" connectable="0" parent="NZekOB0SaVrYHux2-7-G-77">
          <mxGeometry x="0.0789" y="-1" relative="1" as="geometry">
            <mxPoint x="-1" y="-12.5" as="offset" />
          </mxGeometry>
        </mxCell>
        <mxCell id="NZekOB0SaVrYHux2-7-G-79" style="edgeStyle=orthogonalEdgeStyle;rounded=0;orthogonalLoop=1;jettySize=auto;html=1;entryX=0;entryY=0.75;entryDx=0;entryDy=0;exitX=0;exitY=0.5;exitDx=0;exitDy=0;" edge="1" parent="WIyWlLk6GJQsqaUBKTNV-1" source="NZekOB0SaVrYHux2-7-G-75" target="NZekOB0SaVrYHux2-7-G-36">
          <mxGeometry relative="1" as="geometry">
            <Array as="points">
              <mxPoint x="650" y="550" />
              <mxPoint x="650" y="445" />
            </Array>
          </mxGeometry>
        </mxCell>
        <mxCell id="NZekOB0SaVrYHux2-7-G-80" value="Change password" style="edgeLabel;html=1;align=center;verticalAlign=middle;resizable=0;points=[];rotation=-90;" vertex="1" connectable="0" parent="NZekOB0SaVrYHux2-7-G-79">
          <mxGeometry x="-0.1947" y="1" relative="1" as="geometry">
            <mxPoint y="-14.6" as="offset" />
          </mxGeometry>
        </mxCell>
        <mxCell id="NZekOB0SaVrYHux2-7-G-81" style="edgeStyle=orthogonalEdgeStyle;rounded=0;orthogonalLoop=1;jettySize=auto;html=1;exitX=0;exitY=1;exitDx=0;exitDy=0;entryX=0;entryY=0.5;entryDx=0;entryDy=0;" edge="1" parent="WIyWlLk6GJQsqaUBKTNV-1" source="NZekOB0SaVrYHux2-7-G-75" target="NZekOB0SaVrYHux2-7-G-36">
          <mxGeometry relative="1" as="geometry">
            <Array as="points">
              <mxPoint x="640" y="580" />
              <mxPoint x="640" y="480" />
              <mxPoint x="640" y="480" />
              <mxPoint x="640" y="430" />
            </Array>
          </mxGeometry>
        </mxCell>
        <mxCell id="NZekOB0SaVrYHux2-7-G-82" value="Toggle fullscreen" style="edgeLabel;html=1;align=center;verticalAlign=middle;resizable=0;points=[];rotation=-90;" vertex="1" connectable="0" parent="NZekOB0SaVrYHux2-7-G-81">
          <mxGeometry x="0.2575" relative="1" as="geometry">
            <mxPoint x="-3.01" y="5.32" as="offset" />
          </mxGeometry>
        </mxCell>
        <mxCell id="NZekOB0SaVrYHux2-7-G-75" value="Change any of the following settings" style="rhombus;whiteSpace=wrap;html=1;" vertex="1" parent="WIyWlLk6GJQsqaUBKTNV-1">
          <mxGeometry x="665" y="490" width="110" height="120" as="geometry" />
        </mxCell>
      </root>
    </mxGraphModel>
  </diagram>
</mxfile>
